<?xml version="1.0" encoding="utf-8"?>
<!-- Generator: Adobe Illustrator 24.1.0, SVG Export Plug-In . SVG Version: 6.00 Build 0)  -->
<svg version="1.1" id="Capa_1" xmlns="http://www.w3.org/2000/svg" xmlns:xlink="http://www.w3.org/1999/xlink" x="0px" y="0px"
	 viewBox="0 0 488.6 117.4" style="enable-background:new 0 0 488.6 117.4;" xml:space="preserve">
<style type="text/css">
	.st0{fill:#FFFFFF;}
</style>
<g>
	<path class="st0" d="M35.3,4c12,0,22,4.2,30.1,12.5c8.1,8.3,12.1,18.6,12.1,30.9c0,12.3-4,22.6-12.1,30.9
		c-8.1,8.3-18.1,12.5-30.1,12.5H0V4H35.3z M35.3,69.3c6,0,11-2,14.8-6c3.8-4,5.7-9.3,5.7-15.9c0-6.6-1.9-11.9-5.7-15.9
		c-3.8-4-8.7-6-14.8-6H22.8v43.9H35.3z"/>
	<path class="st0" d="M105.6,20.2c-2.4,2.4-5.1,3.5-8.4,3.5s-6-1.2-8.4-3.5c-2.4-2.4-3.5-5.1-3.5-8.4c0-3.2,1.2-6,3.5-8.3
		C91.2,1.2,94,0,97.2,0s6,1.2,8.4,3.5c2.4,2.3,3.5,5.1,3.5,8.3C109.1,15,108,17.8,105.6,20.2z M86.9,90.8v-62h20.6v62H86.9z"/>
	<path class="st0" d="M137.7,67.3c2.1,5,6.7,7.6,13.9,7.6c4.5,0,8.2-1.4,11.3-4.3L177.7,81c-6.1,7.7-15,11.5-26.7,11.5
		c-10.5,0-18.9-3.1-25.2-9.2c-6.3-6.2-9.5-14-9.5-23.4c0-9.3,3.1-17.2,9.3-23.4c6.2-6.3,14.1-9.4,23.7-9.4c9.3,0,16.9,3.1,22.9,9.3
		c6,6.2,9.1,14,9.1,23.3c0,2.7-0.3,5.3-0.9,7.7H137.7z M137.4,53.1h23.8c-1.7-5.8-5.5-8.7-11.7-8.7
		C143.2,44.4,139.1,47.3,137.4,53.1z"/>
	<path class="st0" d="M234.3,28.8h20.3v59.5c0,5-0.9,9.4-2.8,13.2c-1.9,3.8-4.4,6.9-7.5,9.2c-3.1,2.3-6.6,4-10.4,5.1
		c-3.8,1.1-7.8,1.7-12,1.7c-6.9,0-13-1.3-18.4-3.8c-5.4-2.6-9.4-6.3-12.2-11.3l17.1-9.9c3,4.7,7.4,7.1,13.1,7.1c3.7,0,6.7-1,9.1-2.9
		c2.3-1.9,3.5-4.7,3.5-8.3v-6c-4.2,5.1-10,7.7-17.4,7.7c-8.5,0-15.6-3.1-21.1-9.2c-5.6-6.1-8.4-13.6-8.4-22.3
		c0-8.8,2.8-16.2,8.4-22.3c5.6-6.1,12.6-9.2,21.1-9.2c7.4,0,13.1,2.6,17.4,7.7V28.8z M211.6,67.8c2.4,2.4,5.6,3.7,9.5,3.7
		c3.9,0,7-1.2,9.5-3.7c2.4-2.4,3.7-5.5,3.7-9.2c0-3.7-1.2-6.8-3.7-9.2c-2.4-2.4-5.6-3.7-9.5-3.7c-3.9,0-7,1.2-9.5,3.7
		c-2.4,2.4-3.7,5.5-3.7,9.2C208,62.3,209.2,65.3,211.6,67.8z"/>
	<path class="st0" d="M296.5,92.5c-9.2,0-17-3.2-23.4-9.5c-6.4-6.3-9.7-14.1-9.7-23.3c0-9.2,3.2-16.9,9.7-23.3
		c6.4-6.3,14.3-9.5,23.4-9.5c9.3,0,17.1,3.2,23.5,9.5c6.4,6.3,9.6,14.1,9.6,23.3c0,9.2-3.2,16.9-9.6,23.3
		C313.6,89.4,305.8,92.5,296.5,92.5z M296.5,72.7c3.6,0,6.6-1.2,9-3.6c2.4-2.4,3.5-5.5,3.5-9.3c0-3.8-1.2-6.9-3.5-9.3
		c-2.4-2.4-5.4-3.6-9-3.6c-3.6,0-6.5,1.2-8.9,3.6c-2.4,2.4-3.5,5.5-3.5,9.3c0,3.8,1.2,6.9,3.5,9.3C290,71.5,293,72.7,296.5,72.7z"/>
	<path class="st0" d="M376.1,28.8H399l-23.2,62h-22.3l-23.2-62h22.8l11.5,35.6L376.1,28.8z"/>
	<path class="st0" d="M430.2,71.7h23.2v19.1h-50.7V76.6l22-28.8h-20.7V28.8h48.2v14.1L430.2,71.7z"/>
	<path class="st0" d="M475.7,92.5c-3.6,0-6.7-1.3-9.2-3.8c-2.5-2.5-3.8-5.6-3.8-9.1c0-3.6,1.3-6.6,3.8-9.1c2.6-2.5,5.6-3.8,9.2-3.8
		c3.6,0,6.6,1.3,9.1,3.8c2.5,2.5,3.8,5.6,3.8,9.1c0,3.6-1.3,6.6-3.8,9.1C482.3,91.3,479.3,92.5,475.7,92.5z"/>
</g>
</svg>
